<?xml version="1.0" encoding="utf-8"?>
<!-- Generator: Adobe Illustrator 20.1.0, SVG Export Plug-In . SVG Version: 6.00 Build 0)  -->
<svg version="1.1" id="Layer_1" xmlns="http://www.w3.org/2000/svg" xmlns:xlink="http://www.w3.org/1999/xlink" x="0px" y="0px"
	 viewBox="0 0 1000 1000" style="enable-background:new 0 0 1000 1000;" xml:space="preserve">
<style type="text/css">
	.st0{fill:none;stroke:#000000;stroke-miterlimit:10;}
</style>
<g>
	<path class="st0" d="M453.3,1000c0-35.7,175.6-35.7,175.6-71.4c0-35.7-157.9-35.7-157.9-71.4c0-35.7,151.2-35.7,151.2-71.4
		c0-35.7-51.4-35.7-51.4-71.4c0-35.7,141.6-35.7,141.6-71.4c0-35.7-163.4-35.7-163.4-71.4c0-35.7-288.1-35.7-288.1-71.4
		c0-35.7,72.8-35.7,72.8-71.4c0-35.7-82.6-35.7-82.6-71.4c0-35.7,248.6-35.7,248.6-71.4c0-35.7,286.1-35.7,286.1-71.4
		c0-35.7-376.7-35.7-376.7-71.4c0-35.7,382.8-35.7,382.8-71.4S497.8,35.7,497.8,0"/>
</g>
</svg>
